<svg version="1.2" xmlns="http://www.w3.org/2000/svg" viewBox="0 0 1920 291" width="1920" height="291">
	<style>
		.s0 { fill: #000000 } 
	</style>
	<path id="Bella Germaniae." class="s0" aria-label="Bella Germaniae."  d="m98.3 238h-69v-4l20-10v-137l-20-10v-4h63.2q16.8 0 29.8 4.3 12.9 4 20.4 12.2 7.6 8 7.6 20.5 0 12.8-8.5 23.5-8.5 10.5-24.5 15 22.2 3 34.7 14 12.5 10.8 12.5 27.5 0 13.8-8.8 24.8-8.5 10.7-23.5 16.9-15 6.3-34 6.3zm-11.5-151.3l-15 0.1v59.2h16.5q17.8 0 27.8-7.5 10-7.7 10-21.5 0-30.2-39.3-30.2zm9.5 73h-24.5v64.5h26.3q19.7 0 31-9 11.2-9 11.2-23.3 0-17-11.5-24.5-11.2-7.7-32.5-7.7zm148.5 80.7q-24.2 0-38.2-14.7-14-14.8-14-39 0-18.8 7.2-33 7.5-14.5 19.8-22.5 12.2-8.3 26.2-8.3 19.8 0 31 13.8 11.5 13.7 11.5 39.5l-1.2 1.2h-74.8q0.3 11.5 4.5 21.8 4.3 10 13.5 16.2 9.5 6.3 25.3 6.3 13.7 0 32.2-10h0.8v2.5q-5.8 10.7-17.3 18.5-11.2 7.7-26.5 7.7zm-3-106.5q-12 0-19.7 8.5-7.5 8.3-9.3 23.5h56.5q-2.7-17-9.7-24.5-6.8-7.5-17.8-7.5zm121.8 104h-51.5v-4l15.7-8v-147l-15-13v-1.7l33.5-13.8h1.5v175.5l15.8 8zm74 0h-51.5v-4l15.7-8v-147l-15-13v-1.7l33.5-13.8h1.5v175.5l15.8 8zm49.5 2.5q-11.8 0-19.5-6.7-7.8-7-7.8-19.3 0-12.2 9-21.2 9.3-9 30.8-14l23.7-5.5v-18.3q0-8.7-6.5-14.7-6.2-6.3-15-6.3-3.5 0-7 0.8-3.5 0.7-9.2 3.5v23h-16q-4 0-5.8-1.8-1.5-2-1.5-6.7 0-7 6-14 6-7 16.3-11.5 10.5-4.8 23.5-4.8 18 0 26.5 7.5 8.7 7.3 8.7 19.8v71q1.8 1.7 5 3 3.5 1.2 9 1.2h9.5l0.8 0.5v0.8q-3 5.5-9 9.7-5.8 4-14.3 4-7.7 0-12.7-4-4.8-4.2-6.8-11h-1.5q-6.5 6.3-16.2 10.8-9.5 4.2-20 4.2zm-7.8-31q0 15.5 18.8 15.5 6 0 11.7-1.2 6-1.3 13.5-4.5v-37q-20 3.7-29.2 8-9.3 4-12 8.7-2.8 4.8-2.8 10.5zm254.5 31q-24 0-42.7-10.5-18.8-10.5-29.8-28.5-10.7-18.2-10.7-41.5 0-19.2 6.7-35.5 7-16.2 19.3-28.2 12.5-12.3 28.5-19 16.2-6.8 34.5-6.8 13.2 0 22.2 1.5 9.3 1.5 16.5 4.3 7.5 2.7 14.5 6.2l1.3 41.3h-4l-16.3-28q-10.5-7.3-18-10-7.2-2.8-16.7-2.8-19.3 0-34.3 8.5-15 8.3-23.5 23-8.5 14.5-8.5 33 0 24.8 9 42.5 9.3 17.5 24.8 26.8 15.5 9.2 34.5 9.2 8.2 0 15.7-1 7.8-1 16-4.2v-41.3l-22.2-10v-4h62v4l-17.3 10.8v39.2q-11.5 9.5-28.5 15.3-16.7 5.7-33 5.7zm156 0q-24.2 0-38.2-14.7-14-14.8-14-39 0-18.8 7.2-33 7.5-14.5 19.8-22.5 12.2-8.3 26.2-8.3 19.8 0 31 13.8 11.5 13.7 11.5 39.5l-1.2 1.2h-74.8q0.3 11.5 4.5 21.8 4.3 10 13.5 16.2 9.5 6.3 25.3 6.3 13.7 0 32.2-10h0.8v2.5q-5.8 10.7-17.3 18.5-11.2 7.7-26.5 7.7zm-3-106.5q-12 0-19.7 8.5-7.5 8.3-9.3 23.5h56.5q-2.7-17-9.7-24.5-6.8-7.5-17.8-7.5zm125.8 104h-53.5v-4l15.7-8v-74.5l-15-13v-1.7l31-13.8h1.5l2.5 23h0.8q9-12 16.7-17 8-5.2 15-5.2 5.3 0 8.8 2.7 3.5 2.5 3.5 7.8 0 1.5-0.8 5.7l-1.5 9.3-26.7-5q-9 3.7-15.8 13.5v68.2l17.8 8zm96.5 0h-52v-4l15.7-8v-74.5l-15-13v-1.8l31-13.7h1.5l2.3 18.5h1.2q9.5-9.5 18-14 8.5-4.5 18.8-4.5 12 0 20.5 5.5 8.5 5.2 11 16h0.7q10.5-11 19.5-16.3 9.3-5.2 20.3-5.2 14 0 23 7.5 9.2 7.2 9.2 21.8v73.7l15.8 8v4h-53.5v-4l17.7-8v-62q0-11-6.7-16.8-6.5-5.7-16.8-5.7-8.5 0-16 2.7-7.5 2.8-12.5 8.3v73.5l17.3 8v4h-54v-4l16.7-8v-62q0-11-6.7-16.8-6.5-5.7-16.8-5.7-6.2 0-14 2.2-7.7 2.3-12.5 6.5v75.8l16.3 8zm189 2.5q-11.8 0-19.5-6.8-7.8-7-7.8-19.2 0-12.3 9-21.3 9.3-9 30.8-14l23.7-5.5v-18.2q0-8.8-6.5-14.8-6.2-6.2-15-6.2-3.5 0-7 0.7-3.5 0.8-9.2 3.5v23.1l-16-0.1q-4 0-5.8-1.7-1.5-2-1.5-6.8 0-7 6-14 6-7 16.3-11.5 10.5-4.7 23.5-4.7 18 0 26.5 7.5 8.7 7.2 8.7 19.7v71q1.8 1.8 5 3 3.5 1.3 9 1.3h9.5l0.8 0.5v0.7q-3 5.5-9 9.8-5.8 4-14.3 4-7.7 0-12.7-4-4.8-4.3-6.8-11h-1.5q-6.5 6.2-16.2 10.7-9.5 4.3-20 4.3zm-7.8-31q0 15.5 18.8 15.5 6 0 11.7-1.3 6-1.2 13.5-4.5v-37q-20 3.8-29.2 8-9.3 4-12 8.8-2.8 4.7-2.8 10.5zm156.3 28.5h-53.5v-4l15.7-8v-74.5l-15-13v-1.8l31-13.7h1.5l2.3 18.5h1.2q9.5-9.5 18.3-14 9-4.5 19.7-4.5 14.8 0 24 7.5 9.5 7.2 9.5 21.7v73.8l15.8 8v4h-53.5v-4l17.7-8v-62q0-11-7-16.8-6.7-5.7-17.7-5.7-6.8 0-15 2.3-8 2.2-12.8 6.5v75.7l17.8 8zm117-145.3q-6.5 0.1-10.8-4.2-4.2-4.5-4.2-10.7 0-6.5 4.2-10.8 4.3-4.2 10.8-4.2 6.5 0 10.7 4.2 4.3 4.3 4.3 10.8 0 6.2-4.3 10.7-4.2 4.3-10.7 4.3zm26.5 145.2h-51.5v-4l15.7-8v-74.5l-15-13v-1.7l33.5-13.8h1.5v103l15.8 8zm53 2.5q-11.8 0-19.5-6.7-7.8-7-7.8-19.3 0-12.2 9-21.2 9.3-9 30.8-14l23.7-5.5v-18.3q0-8.7-6.5-14.7-6.2-6.3-15-6.3-3.5 0-7 0.8-3.5 0.7-9.2 3.5v23h-16q-4 0-5.8-1.8-1.5-2-1.5-6.7 0-7 6-14 6-7 16.3-11.5 10.5-4.8 23.5-4.8 18 0 26.5 7.5 8.7 7.3 8.7 19.8v71q1.8 1.7 5 3 3.5 1.2 9 1.2h9.5l0.8 0.5v0.8q-3 5.5-9 9.7-5.8 4-14.3 4-7.7 0-12.7-4-4.8-4.2-6.8-11h-1.5q-6.5 6.3-16.2 10.8-9.5 4.2-20 4.2zm-7.8-31q0 15.5 18.8 15.5 6 0 11.7-1.2 6-1.3 13.5-4.5v-37q-20 3.7-29.2 8-9.3 4-12 8.7-2.8 4.8-2.8 10.5zm155.5 31q-24.2 0-38.2-14.7-14-14.8-14-39 0-18.8 7.2-33 7.5-14.5 19.8-22.5 12.2-8.3 26.2-8.3 19.8 0 31 13.8 11.5 13.7 11.5 39.5l-1.2 1.2h-74.8q0.3 11.5 4.5 21.8 4.3 10 13.5 16.2 9.5 6.3 25.3 6.3 13.7 0 32.2-10h0.8v2.5q-5.8 10.7-17.3 18.5-11.2 7.7-26.5 7.7zm-3-106.5q-12 0-19.7 8.5-7.5 8.3-9.3 23.5h56.5q-2.7-17-9.7-24.5-6.8-7.5-17.8-7.5zm87.5 105.3q-6.2 0-10.7-4.5-4.5-4.5-4.5-10.8 0-6.2 4.5-10.7 4.5-4.5 10.7-4.5 6.3 0 10.8 4.5 4.5 4.5 4.5 10.7 0 6.3-4.5 10.8-4.5 4.5-10.8 4.5z"/>
</svg>